<svg width="375" height="120" viewBox="0 0 97 31" fill="none" xmlns="http://www.w3.org/2000/svg">
<g id="Frame 1" clip-path="url(#clip0_1_42)">
<g id="Group">
<path id="Vector" d="M94.7069 18.5919C94.6189 18.5919 94.5308 18.4328 94.4593 18.1531C94.2447 17.3305 93.2268 15.4055 92.451 14.347C92.1099 13.8863 91.4441 13.0143 91.3616 12.9211C91.2405 12.784 91.2681 12.965 91.4111 13.2501C91.4991 13.4311 91.6862 13.8589 91.8293 14.2044C91.9723 14.5499 92.2584 15.1587 92.473 15.5481C92.9242 16.3817 93.7055 17.9557 93.7605 18.1531C93.7935 18.2628 93.744 18.2354 93.4799 17.9941C92.7096 17.2866 91.5046 16.6614 89.3038 15.8278C86.5692 14.7858 85.0506 14.4019 84.1428 14.528C83.6311 14.5993 82.7177 14.8735 82.6847 14.9613C82.6682 15.0161 82.7012 15.0216 82.8223 14.9887C83.0589 14.9229 84.1153 14.9558 84.8636 15.049C86.3877 15.2464 89.6339 16.2556 91.3396 17.0563C92.363 17.5334 93.2708 18.1476 93.5955 18.5754L93.7385 18.7564L93.5404 18.8496C93.4359 18.899 93.3479 18.9703 93.3479 19.0087C93.3479 19.0471 93.2433 19.1129 93.1168 19.1513C92.9847 19.1842 92.8307 19.2445 92.7701 19.2829C92.7096 19.3213 92.451 19.4255 92.1924 19.5132C91.5487 19.7381 91.3286 19.8368 90.1456 20.4182C89.5789 20.6924 89.1112 20.9447 89.1112 20.9721C89.1112 21.0269 89.5349 20.9721 89.9365 20.8624C90.1016 20.813 90.6243 20.5882 91.092 20.3633C92.1869 19.8368 92.8087 19.5791 93.0012 19.5791C93.0838 19.5791 93.3038 19.5187 93.4854 19.442C93.667 19.3707 93.8981 19.3048 93.9916 19.3048C94.2227 19.3048 94.7069 19.0361 94.7454 18.8935C94.8004 18.7071 94.7839 18.5919 94.7069 18.5919Z" fill="#FCFCFC"/>
<path id="Vector_2" d="M78.5196 21.7454C78.4811 21.537 78.3931 20.8459 78.3325 20.2098C78.184 18.7783 78.1235 18.4493 77.9694 18.2738C77.8539 18.1367 77.8374 18.1367 77.7108 18.2189C77.5567 18.3231 77.2761 18.8661 76.891 19.8204C76.5884 20.5772 76.5939 20.5882 76.5113 19.42C76.4783 18.9867 76.4398 18.6138 76.4233 18.5864C76.4068 18.559 76.3353 18.537 76.2692 18.537C76.0492 18.537 75.4659 19.4639 75.1578 20.3085C75.0258 20.6814 74.9762 20.7692 74.9707 20.6485C74.9707 20.5608 74.9542 20.3469 74.9432 20.1823C74.9322 20.0178 74.9047 19.5352 74.8937 19.1129C74.8607 18.2573 74.8222 17.9886 74.7286 17.9886C74.6846 17.9886 74.6681 18.4603 74.6736 19.6778C74.6736 21.5534 74.7121 21.8276 74.9432 21.8276C75.0423 21.8276 75.0863 21.7892 75.1028 21.707C75.2954 20.7472 75.554 20.0068 75.9171 19.3707C76.1427 18.9758 76.1537 18.9648 76.1867 19.1184C76.2087 19.2061 76.2252 19.4365 76.2307 19.6339C76.2362 20.0726 76.3243 20.7746 76.4178 21.1421C76.4728 21.3779 76.5003 21.4163 76.6214 21.4163C76.7314 21.4163 76.7644 21.3834 76.7754 21.2518C76.836 20.7088 77.6338 18.5919 77.7768 18.5919C77.8429 18.5919 77.8814 18.8771 77.9969 20.1659C78.096 21.2847 78.173 21.9318 78.2445 22.2554C78.294 22.4638 78.6352 22.3816 78.5967 22.1677C78.5912 22.1457 78.5581 21.9593 78.5196 21.7454Z" fill="#FCFCFC"/>
<path id="Vector_3" d="M77.9144 7.20641C77.8484 7.22835 77.8318 7.17899 77.8318 6.92123C77.8318 6.45506 77.6833 5.26496 77.4687 4.00905C77.2101 2.48989 77.0725 1.47529 77.034 0.806197C76.99 0.104202 76.968 0 76.8635 0C76.7094 0 76.8195 1.40399 77.1716 3.9213C77.2871 4.76588 77.4027 5.61596 77.4247 5.81339L77.4632 6.16987L77.1551 5.88469C76.7479 5.51724 76.4233 5.3911 76.1262 5.47885C75.1413 5.775 74.6406 7.42578 75.3724 7.97422C75.9556 8.40748 76.7369 8.27586 77.6008 7.60128C77.9639 7.31061 78.1125 7.12963 77.9144 7.20641ZM77.2706 7.56838C76.8965 7.74388 76.3518 7.89744 76.1262 7.89744C75.8896 7.89195 75.5375 7.7 75.4439 7.51902C75.1853 7.03091 75.543 6.04373 76.0492 5.83533C76.3243 5.72016 76.4673 5.74209 76.7589 5.93405C77.0836 6.14794 77.3091 6.49345 77.3972 6.90477C77.4357 7.07479 77.4962 7.25029 77.5402 7.29416C77.5787 7.33804 77.6118 7.38191 77.6118 7.39288C77.6118 7.40385 77.4577 7.48063 77.2706 7.56838Z" fill="#FCFCFC"/>
<path id="Vector_4" d="M73.6062 20.8405C73.5732 20.8405 73.4191 20.9337 73.2706 21.0489C72.5498 21.5863 71.5649 21.9483 71.1192 21.8276C70.9927 21.7947 70.8441 21.718 70.7891 21.6631C70.6461 21.5205 70.558 21.1695 70.58 20.824C70.5965 20.5662 70.6075 20.5388 70.7341 20.5224C71.6694 20.4072 72.9019 19.2555 72.9074 18.4932C72.9074 18.2902 72.8799 18.2299 72.7259 18.0928C72.3627 17.7692 71.7685 17.9283 71.2733 18.4822C70.7561 19.0581 70.393 19.8697 70.2829 20.6979C70.2334 21.0708 70.2389 21.1915 70.3159 21.4492C70.591 22.4035 71.752 22.4419 72.9294 21.526C73.3036 21.2353 73.6942 20.8405 73.6062 20.8405ZM72.5553 19.0032C72.3737 19.3158 72.0216 19.6833 71.6805 19.9191C71.3613 20.1385 70.8661 20.3578 70.7396 20.3359C70.6461 20.3194 70.6405 20.303 70.7121 20.0178C70.9267 19.1787 71.5539 18.2957 72.0381 18.1531C72.6433 17.9722 72.9019 18.3999 72.5553 19.0032Z" fill="#FCFCFC"/>
<path id="Vector_5" d="M73.2156 7.74935C73.1055 7.77677 73.1 7.75484 73.1 7.41481C73.0945 6.35633 72.7149 4.93041 72.3737 4.69458C72.1977 4.56844 72.0876 4.58489 71.884 4.75491C71.6309 4.9688 71.3283 5.64885 71.0477 6.64152C70.9157 7.1022 70.7946 7.4532 70.7781 7.42578C70.7286 7.35448 70.6185 6.17535 70.536 4.87008C70.5085 4.42585 70.481 4.27777 70.426 4.27777C70.3654 4.27777 70.3489 4.49714 70.3489 5.44593C70.3489 7.11317 70.448 7.88646 70.6846 8.12229C70.8881 8.32521 70.9707 8.19907 71.2238 7.22834C71.4934 6.21922 71.7245 5.56659 71.9391 5.22656C72.1041 4.95783 72.1811 4.93589 72.3022 5.12236C72.5058 5.424 72.7699 6.86638 72.7699 7.65063C72.7699 8.20455 73.001 8.35811 73.2156 7.94679L73.3311 7.71645L73.2156 7.74935Z" fill="#FCFCFC"/>
<path id="Vector_6" d="M69.6227 17.5992C69.122 17.5828 68.5167 17.6212 68.1481 17.6925C67.9225 17.7363 67.7134 17.7692 67.6859 17.7692C67.6364 17.7692 67.6584 17.3305 67.7519 16.4256C67.7739 16.2172 67.7849 15.9868 67.7739 15.9155C67.7519 15.7675 67.6199 15.7894 67.6364 15.9375C67.6474 15.9923 67.6144 16.3159 67.5704 16.6449C67.5263 16.9795 67.4768 17.3853 67.4603 17.5553L67.4273 17.857L67.1577 17.9283C66.8881 17.9996 66.7615 18.1312 66.9101 18.186C66.9541 18.208 67.0697 18.1915 67.1632 18.1586C67.4053 18.0764 67.4438 18.0818 67.4108 18.197C67.3943 18.2464 67.3558 18.8113 67.3228 19.4474C67.2347 21.2408 67.3558 22.1019 67.7299 22.3486C67.906 22.4638 68.1096 22.398 68.3242 22.1677C68.5332 21.9428 69.2155 20.7856 69.166 20.7417C69.144 20.7198 69.0834 20.7637 69.0339 20.8405C68.8193 21.1695 68.0876 22.036 67.9995 22.0689C67.8125 22.1402 67.6804 21.8002 67.5979 21.0598C67.5484 20.6485 67.5704 18.1312 67.6199 18.0489C67.6749 17.9667 69.0834 17.7144 69.5071 17.7144C69.7822 17.7144 69.8923 17.6047 69.6227 17.5992Z" fill="#FCFCFC"/>
<path id="Vector_7" d="M68.6653 7.67806C68.6488 7.67806 68.5827 7.73839 68.5277 7.80968C68.3572 8.02906 67.7189 8.45135 67.3062 8.62685C66.789 8.84074 66.4149 8.84622 66.2388 8.6433C66.0683 8.44586 65.9857 8.10035 66.0132 7.68354C66.0352 7.37094 66.0573 7.31609 66.2113 7.17898C66.4094 6.998 66.635 6.97606 67.0146 7.08575C67.2842 7.16802 67.873 7.71096 67.873 7.88098C67.873 8.04551 68.005 8.13874 68.1041 8.04551C68.1701 7.9797 68.1701 7.86453 68.1096 7.26125C68.071 6.87186 67.9995 6.35633 67.95 6.12051C67.873 5.70918 67.6364 5.11688 67.4768 4.93589C67.1412 4.53554 66.5525 4.57393 66.0793 5.01816C65.9527 5.13881 65.9032 5.22656 65.9252 5.28689C65.9637 5.38561 66.0958 5.37464 66.0738 5.27592C66.0352 5.11139 66.745 4.74394 66.9926 4.79879C67.4493 4.8975 67.8124 5.81887 67.8179 6.8938V7.29416L67.5648 7.1022C67.4273 6.998 67.1797 6.87186 67.0091 6.8225C66.4809 6.66894 66.0573 6.80605 65.8372 7.19544C65.7271 7.38739 65.7161 7.47514 65.7381 7.94679C65.7601 8.54458 65.8537 8.76944 66.1673 8.97784C66.6845 9.32884 67.851 8.8901 68.4562 8.12229C68.6763 7.84259 68.7533 7.67806 68.6653 7.67806Z" fill="#FCFCFC"/>
<path id="Vector_8" d="M65.4685 18.9758C65.1439 18.9758 64.7367 19.08 64.4066 19.25C64.06 19.42 63.9664 19.5187 63.9664 19.6942C63.9664 19.9136 64.2085 20.1659 64.8743 20.6485C65.5125 21.1147 65.6116 21.2573 65.4465 21.4657C65.2925 21.6576 64.6047 22.1073 64.225 22.2609C63.9609 22.3706 63.9114 22.4145 63.9224 22.5077C63.9334 22.5954 63.9719 22.6229 64.093 22.6119C64.3351 22.5954 65.0669 22.1567 65.4135 21.8167C65.6721 21.5589 65.7271 21.4766 65.7271 21.3176C65.7271 21.0873 65.6391 20.9885 64.9733 20.4675C64.4286 20.0397 64.2415 19.8368 64.2415 19.6887C64.2415 19.6284 64.3626 19.5407 64.6157 19.4255C65.0339 19.2335 65.1659 19.1952 65.4795 19.1787C65.6336 19.1677 65.7051 19.1348 65.7161 19.069C65.7326 18.9922 65.6886 18.9758 65.4685 18.9758Z" fill="#FCFCFC"/>
<path id="Vector_9" d="M64.0435 8.97784C64.027 8.96139 63.9775 8.96139 63.9335 8.97784C63.8344 9.01623 63.8124 8.89558 63.7464 8.00712C63.6638 6.86089 63.4218 5.81338 63.1301 5.33625C62.7945 4.77685 62.3323 5.47884 61.8867 7.21737C61.7766 7.65063 61.6831 7.99615 61.6776 7.99066C61.6721 7.98518 61.6501 7.68354 61.6281 7.32157C61.474 4.51908 61.1824 2.05662 60.9073 1.26687C60.8908 1.21203 60.8633 1.20655 60.8247 1.24494C60.7807 1.28881 60.7862 1.41495 60.8468 1.68368C61.0063 2.36374 61.1714 4.27229 61.3034 6.88283C61.4245 9.20818 61.4905 9.58112 61.7931 9.46595C61.8757 9.43853 61.8812 9.38917 61.8536 9.13689C61.7766 8.55555 62.2553 6.53732 62.657 5.74757C62.7395 5.57207 62.8385 5.42948 62.866 5.42948C62.8991 5.42948 62.9211 5.43496 62.9211 5.44593C62.9211 5.45142 62.9926 5.67079 63.0806 5.92855C63.3007 6.57571 63.3557 6.88831 63.4383 8.07841C63.4988 8.91752 63.5318 9.1314 63.6088 9.21367C63.7354 9.35626 63.8234 9.35078 63.9665 9.2027C64.082 9.07656 64.0985 9.03269 64.0435 8.97784Z" fill="#FCFCFC"/>
<path id="Vector_10" d="M62.2113 19.5791C62.1012 19.5791 62.0022 19.8259 61.8261 20.5388C61.7271 20.9337 61.5785 21.4931 61.485 21.7838C61.3254 22.3103 61.3199 22.3157 61.1879 22.2554C61.0228 22.1841 60.7862 21.8441 60.0929 20.6924C59.7958 20.1988 59.5317 19.7984 59.5042 19.7984C59.3942 19.7984 59.4712 19.9904 59.7848 20.5333C59.9664 20.8459 60.1149 21.1202 60.1149 21.1366C60.1149 21.1531 60.236 21.3724 60.39 21.6302C60.6982 22.1457 60.9293 22.3761 61.1603 22.3761H61.3144L61.0668 23.0506C60.3515 25.0305 60.0764 25.9957 60.17 26.237C60.2415 26.4235 60.379 26.418 60.4176 26.2315C60.5276 25.7105 60.7257 25.025 61.1328 23.7197C61.3859 22.908 61.7326 21.696 61.8976 21.0324C62.0627 20.3688 62.2168 19.771 62.2333 19.7052C62.2608 19.6284 62.2498 19.5791 62.2113 19.5791Z" fill="#FCFCFC"/>
<path id="Vector_11" d="M58.3983 21.8605C58.3268 21.7838 57.8921 21.5205 57.4299 21.2792C56.5276 20.8075 56.2305 20.6266 55.9333 20.3469L55.7463 20.1714L56.0434 19.9849C56.423 19.7491 57.0668 19.4968 57.529 19.4145C58.0187 19.3213 58.0352 19.3158 58.0132 19.2335C57.9416 19.0361 57.0448 19.2006 56.2745 19.5571C55.0585 20.1165 55.1961 20.3907 57.1988 21.3889C57.6995 21.6357 58.1507 21.877 58.2057 21.9263C58.6624 22.3267 57.3309 23.1987 56.2525 23.1987C56.0819 23.1987 55.9223 23.1713 55.9003 23.1384C55.8453 23.0452 55.7518 23.1713 55.7903 23.2974C55.9223 23.6978 57.0888 23.5333 57.8976 23.0013C58.4643 22.6229 58.6679 22.1622 58.3983 21.8605Z" fill="#FCFCFC"/>
<path id="Vector_12" d="M54.4698 8.72009C54.4533 8.72009 54.3047 8.84075 54.1452 8.98334C53.5674 9.50984 52.566 9.91568 51.9883 9.85535C51.284 9.78405 51.119 9.54823 51.13 8.63783C51.1465 7.85357 51.1795 7.7384 51.4271 7.65613C51.9058 7.4916 52.456 6.96511 52.577 6.5483C52.7036 6.13149 52.434 5.68177 52.1039 5.74759C51.7902 5.80791 51.2455 6.58669 51.0915 7.20093C51.042 7.3874 50.9979 7.4587 50.9374 7.44773C50.8329 7.42579 50.7778 7.61774 50.8714 7.67807C50.9209 7.70549 50.9209 7.79873 50.8714 8.06746C50.8329 8.25941 50.8054 8.61589 50.8054 8.8572C50.8054 9.78954 51.1685 10.1625 52.0819 10.168C52.9567 10.1789 53.7875 9.78954 54.2607 9.14239C54.4918 8.83526 54.5468 8.72009 54.4698 8.72009ZM52.2469 6.81703C52.1424 6.98156 51.9608 7.15706 51.7462 7.29417C51.3061 7.57387 51.2455 7.57935 51.3226 7.31062C51.4876 6.70734 51.9663 5.97793 52.1974 5.97793C52.456 5.97793 52.4835 6.4441 52.2469 6.81703Z" fill="#FCFCFC"/>
<path id="Vector_13" d="M49.6939 9.54274C49.6004 9.54274 49.5784 9.46048 49.4628 8.61041C49.2978 7.39837 49.1437 6.80058 49.0006 6.80058C48.7696 6.80058 48.2138 7.70549 47.7902 8.77494L47.5316 9.43306L47.4986 9.09303C47.4765 8.90108 47.449 8.1936 47.4325 7.51354C47.416 6.83348 47.394 6.12052 47.3775 5.92308C47.361 5.72565 47.3335 4.95236 47.317 4.19552C47.295 3.44417 47.273 2.81347 47.262 2.8025C47.2565 2.79702 47.2179 2.8025 47.1849 2.82444C47.1464 2.84637 47.1299 3.55385 47.1299 5.17173C47.1354 7.67807 47.2014 9.27401 47.3115 9.78405C47.3885 10.1515 47.5261 10.2941 47.6526 10.1296C47.6911 10.0747 47.7131 9.98697 47.6966 9.93761C47.6306 9.68533 48.4559 7.70001 48.8026 7.27223L48.9291 7.1077L49.0226 7.60129C49.0722 7.87002 49.1437 8.39652 49.1877 8.77494C49.2262 9.16981 49.3033 9.54274 49.3528 9.64146C49.4463 9.82244 49.5894 9.86632 49.7049 9.75115C49.7929 9.6634 49.7874 9.54274 49.6939 9.54274Z" fill="#FCFCFC"/>
<path id="Vector_14" d="M48.3404 22.8422C48.2468 22.5735 48.0873 21.9757 47.9882 21.5205C47.7572 20.5004 47.6306 20.1823 47.449 20.1823C47.1464 20.1823 46.7558 20.8405 46.3321 22.0744C46.2166 22.409 46.09 22.749 46.057 22.8368L45.991 22.9958L45.9525 22.8093C45.9084 22.5516 45.8204 21.6412 45.7764 20.9063C45.7544 20.484 45.7214 20.292 45.6773 20.3085C45.5948 20.3359 45.5728 21.5041 45.6388 22.3487C45.6994 23.1494 45.8369 23.5552 46.035 23.5552C46.134 23.5552 46.1725 23.5223 46.1835 23.4181C46.2166 23.1548 46.8163 21.4163 47.0034 21.0324C47.1904 20.654 47.328 20.4566 47.405 20.4566C47.46 20.4566 47.5976 20.9776 47.7572 21.7947C47.9772 22.919 48.2303 23.5717 48.4174 23.5113C48.522 23.4784 48.5054 23.3523 48.3404 22.8422Z" fill="#FCFCFC"/>
<path id="Vector_15" d="M45.936 4.88105C45.8809 4.88105 45.4958 4.99074 45.0776 5.12236L44.3238 5.36368V5.10591C44.3238 4.80427 44.4724 3.36738 44.5219 3.22479C44.5384 3.15897 44.5219 3.12607 44.4669 3.12607C44.4229 3.12607 44.3734 3.14252 44.3624 3.16994C44.3348 3.20833 44.1918 4.34359 44.1313 5.03462C44.1038 5.33625 44.0707 5.44594 43.9992 5.46788C43.6196 5.5995 43.0033 5.92856 43.0033 5.99986C43.0033 6.09858 43.1684 6.12051 43.2564 6.03276C43.2839 6.00534 43.4765 5.91759 43.6856 5.84081L44.0652 5.69822L44.0267 6.26311C43.9002 8.18262 43.9332 9.02721 44.1423 9.5537C44.2633 9.85534 44.5549 10.0912 44.8025 10.0912C45.0886 10.0912 45.4628 9.89373 45.6444 9.64694C45.8314 9.38917 46.057 8.84074 46.002 8.7859C45.98 8.76396 45.947 8.78041 45.936 8.8188C45.8589 9.03269 45.5288 9.42756 45.2922 9.58661C44.8025 9.91019 44.5219 9.79501 44.3458 9.18625C44.2688 8.92301 44.2468 8.59943 44.2358 7.56838C44.2303 6.8609 44.2413 6.13148 44.2633 5.95598L44.2963 5.62692L44.8906 5.45142C45.5288 5.25947 45.9855 5.05655 46.0185 4.95235C46.0295 4.91396 45.991 4.88105 45.936 4.88105Z" fill="#FCFCFC"/>
<path id="Vector_16" d="M44.5274 21.2957C44.3128 20.7472 43.8121 20.2043 43.394 20.0836C42.8933 19.9301 42.3376 20.1056 42.0129 20.5114C41.6278 20.9995 41.3472 21.9428 41.4627 22.3706C41.5398 22.6667 41.6223 22.6613 41.5948 22.3651C41.5728 22.1512 41.5783 22.1622 41.6553 22.4419C41.8644 23.259 42.3871 23.7691 43.0914 23.8404C43.6636 23.9007 44.1643 23.5552 44.4779 22.8806C44.687 22.4364 44.7035 21.7728 44.5274 21.2957ZM44.2853 22.7655C44.0377 23.3194 43.515 23.6923 43.0804 23.621C42.7447 23.5662 42.4036 23.3633 42.2 23.1C41.7653 22.5351 41.6608 21.5205 41.9799 21.005C42.1945 20.665 42.3376 20.5169 42.5742 20.3962C43.2179 20.0672 43.9827 20.5224 44.3238 21.4492C44.4669 21.8222 44.4504 22.398 44.2853 22.7655Z" fill="#FCFCFC"/>
<path id="Vector_17" d="M40.0102 23.2481C39.9111 23.3303 39.8836 23.1055 39.8341 21.8386C39.8011 20.9776 39.7626 20.7637 39.658 20.8679C39.5975 20.9282 39.6415 23.3029 39.702 23.4181C39.8066 23.6155 40.0872 23.5223 40.0872 23.292C40.0872 23.2042 40.0707 23.1987 40.0102 23.2481Z" fill="#FCFCFC"/>
<path id="Vector_18" d="M39.7791 19.4694C39.6965 19.2226 39.504 19.1732 39.449 19.3816C39.4104 19.5297 39.482 19.6558 39.6525 19.7436C39.7956 19.8258 39.8561 19.6942 39.7791 19.4694Z" fill="#FCFCFC"/>
<path id="Vector_19" d="M37.5672 22.9793C37.5342 22.9793 37.4461 23.089 37.3691 23.2261C37.116 23.6539 36.3072 24.2298 36.0431 24.164C35.9055 24.1311 35.779 23.9062 35.6855 23.5278C35.6084 23.2371 35.5479 20.9227 35.5974 20.4949C35.6304 20.2536 35.6635 20.1878 35.768 20.1385C35.9276 20.0672 36.6263 19.9246 37.0885 19.8642C37.2701 19.8423 37.4186 19.7984 37.4186 19.771C37.4186 19.6613 36.5438 19.6778 36.0871 19.7929C35.856 19.8533 35.6524 19.8917 35.6414 19.8807C35.6194 19.8588 35.6965 18.8716 35.7735 18.0983C35.867 17.1824 35.878 16.9905 35.834 16.963C35.8065 16.9466 35.768 16.9575 35.7405 16.9795C35.6965 17.0343 35.4104 19.42 35.4104 19.7436C35.4104 19.9794 35.3773 20.0343 35.1518 20.1494C35.0527 20.1988 34.9702 20.2646 34.9702 20.2975C34.9702 20.3853 35.1187 20.4127 35.2453 20.3469C35.3663 20.2811 35.3663 20.2865 35.3333 20.6869C35.2178 22.1622 35.2563 23.2261 35.4434 23.8568C35.5534 24.2243 35.823 24.515 36.0541 24.515C36.4503 24.515 37.1765 23.9501 37.4351 23.44C37.5837 23.1494 37.6277 22.9793 37.5672 22.9793Z" fill="#FCFCFC"/>
<path id="Vector_20" d="M36.8574 5.59401C36.7144 5.59401 36.4008 5.64337 36.1642 5.69822L35.7295 5.80242L35.7625 5.3527C35.845 4.11873 35.8615 3.30705 35.8065 3.26866C35.691 3.19736 35.6525 3.40577 35.6029 4.49715C35.5864 4.87557 35.5589 5.33625 35.5424 5.51723L35.5094 5.85178L35.1683 5.9505C34.5575 6.13148 34.5465 6.33988 35.1573 6.18084C35.3278 6.13696 35.4764 6.11503 35.4874 6.13148C35.4984 6.15342 35.4819 6.5428 35.4544 6.99252C35.3774 8.23746 35.4214 9.83889 35.5424 10.157C35.669 10.497 35.9771 10.7712 36.1752 10.7219C36.4118 10.6615 36.5768 10.4696 36.7309 10.0637C36.8024 9.87728 36.6649 9.87728 36.5658 10.0637C36.5218 10.1405 36.4063 10.2557 36.3072 10.316C36.0816 10.4531 35.9991 10.4093 35.8285 10.0363C35.7185 9.80598 35.713 9.68532 35.702 8.03454C35.6965 7.07478 35.702 6.2302 35.7185 6.16438C35.746 6.0547 35.8175 6.03276 36.2797 5.9505C36.8354 5.86275 37.061 5.78048 37.105 5.66531C37.116 5.61595 37.05 5.59401 36.8574 5.59401Z" fill="#FCFCFC"/>
<path id="Vector_21" d="M33.6992 11.0509C33.6497 10.9028 33.5507 10.0308 33.4516 8.9943C33.4296 8.76944 33.4021 8.24843 33.3801 7.84259L33.3471 7.10221H33.2095C33.072 7.10221 33.072 7.10221 33.0885 7.55192C33.127 8.5391 32.8024 10.1405 32.4172 10.9028C32.1696 11.3855 31.9606 11.5829 31.724 11.561C31.3388 11.5226 31.2178 11.0948 31.2123 9.73469C31.2123 8.73105 31.2618 8.03454 31.3718 7.49708C31.4654 7.0364 31.4654 7.01994 31.3773 7.01994C31.1737 7.01994 30.9977 8.32521 30.9867 9.8718C30.9812 11.1771 31.0142 11.3635 31.3003 11.6707C31.4434 11.8187 31.5094 11.8462 31.7295 11.8462C32.0266 11.8462 32.1916 11.7365 32.4337 11.391C32.6648 11.0509 32.8739 10.5299 33.0445 9.84437L33.1985 9.24658L33.237 9.73469C33.3306 10.9741 33.4131 11.3251 33.6167 11.3251C33.7487 11.3251 33.7653 11.2648 33.6992 11.0509Z" fill="#FCFCFC"/>
<path id="Vector_22" d="M33.5562 23.7471C33.5342 23.7471 33.4461 23.813 33.3636 23.8952C33.226 24.0268 33.2095 24.0323 33.2205 23.9391C33.248 23.7417 33.149 22.9574 33.0445 22.5022C32.8574 21.707 32.4557 21.0763 31.9771 20.824C31.6634 20.6595 31.1737 20.6649 30.8436 20.835C30.53 20.9995 30.2934 21.2134 30.2934 21.3505C30.2934 21.4273 30.3264 21.4492 30.4475 21.4328C30.5355 21.4218 30.5905 21.3889 30.5795 21.3395C30.541 21.1421 31.0197 20.8788 31.4213 20.8788C31.9826 20.8788 32.4117 21.2792 32.6978 22.0689C32.7749 22.2938 32.9509 23.4236 32.9069 23.462C32.8959 23.4729 32.8024 23.4236 32.7033 23.3468C32.0541 22.8477 31.3003 22.8642 31.0307 23.3742C30.8931 23.632 30.9041 24.164 31.0417 24.4327C31.2068 24.7453 31.4488 24.855 31.922 24.833C32.2301 24.8166 32.3842 24.7782 32.6758 24.6301C33.127 24.3998 33.7818 23.7471 33.5562 23.7471ZM32.6923 24.312C31.878 24.7124 31.3773 24.6301 31.2288 24.0817C31.1077 23.632 31.3663 23.1987 31.7515 23.1987C32.0046 23.1987 32.5823 23.5058 32.7584 23.7307C32.8409 23.8349 32.9344 23.9501 32.9729 23.9885C33.0775 24.0872 33.028 24.1475 32.6923 24.312Z" fill="#FCFCFC"/>
<path id="Vector_23" d="M30.1889 8.63234C30.0183 7.59032 29.4021 6.63605 28.8959 6.63605C28.6208 6.63605 28.3071 7.01995 28.1476 7.55193C28.1091 7.67807 28.0375 7.78776 27.9825 7.80421C27.7734 7.85905 27.6029 9.1369 27.7019 9.88277C27.8009 10.6396 28.098 11.5006 28.3677 11.8023C28.7418 12.2301 29.0224 12.2685 29.3855 11.9504C29.9358 11.4677 30.3594 9.70727 30.1889 8.63234ZM29.7762 10.5464C29.4956 11.6542 29.0334 12.1149 28.6263 11.6981C28.3346 11.3855 27.8725 10.0199 27.977 9.74566C27.999 9.67985 28.0375 9.43854 28.0595 9.21368C28.1091 8.69816 28.3291 7.76034 28.4832 7.39837C28.5932 7.15157 28.8078 6.91026 28.9234 6.91026C29.0059 6.91026 29.314 7.20642 29.4461 7.41482C29.9633 8.2265 30.0788 9.34531 29.7762 10.5464Z" fill="#FCFCFC"/>
<path id="Vector_24" d="M29.0224 25.8586C28.9949 25.7105 28.9619 25.4638 28.9399 25.3102C28.9234 25.1621 28.7858 24.5588 28.6373 23.9775C28.4117 23.0726 28.3787 22.8697 28.4062 22.5735C28.4447 22.1677 28.3071 21.7893 28.076 21.6686C27.9055 21.5754 27.7404 21.6247 27.7789 21.7618C27.7954 21.8112 27.889 22.1128 27.9825 22.4309L28.1586 23.0068L27.999 23.3084C27.7844 23.7307 27.2782 24.2462 26.8766 24.4601C26.5905 24.6137 26.5024 24.6356 26.2603 24.6082C25.9357 24.5808 25.7651 24.4272 25.6716 24.0762C25.512 23.4894 26.0513 22.1677 26.6015 21.7947C26.8381 21.6357 27.1132 21.6138 27.0912 21.7563C27.0802 21.8112 27.1132 21.8605 27.1737 21.8715C27.2452 21.888 27.2672 21.8551 27.2672 21.7344C27.2672 21.5315 27.1792 21.4437 26.9756 21.4437C26.563 21.4437 26.1558 21.8276 25.7872 22.5625C25.2314 23.6759 25.281 24.4492 25.9302 24.7837C26.4529 25.0524 27.5148 24.4492 28.01 23.5936C28.1036 23.44 28.1916 23.3084 28.2081 23.3084C28.2521 23.3084 28.4997 24.2517 28.6373 24.9537C28.9674 26.6374 28.8683 28.1346 28.3787 28.9079C28.01 29.4893 27.2892 29.7306 26.695 29.4838C26.2273 29.2918 25.8477 28.8476 25.7541 28.3924C25.7101 28.1675 25.6111 28.2717 25.6496 28.5076C25.7706 29.2918 26.4364 29.8896 27.1902 29.8896C27.6964 29.8896 28.0155 29.758 28.3732 29.396C28.7198 29.0395 28.9234 28.5734 29.0279 27.8933C29.0939 27.4765 29.0884 26.2864 29.0224 25.8586ZM28.2081 22.3761C28.1861 22.2993 28.1476 22.1677 28.1311 22.0744L28.0925 21.9099L28.1751 22.047C28.2191 22.1238 28.2521 22.2609 28.2521 22.3487C28.2466 22.5077 28.2466 22.5077 28.2081 22.3761Z" fill="#FCFCFC"/>
<path id="Vector_25" d="M23.7238 25.2279C23.6798 25.2279 23.6248 25.1292 23.5918 24.9976C23.4928 24.6137 23.3057 23.0561 23.3057 22.6448C23.3057 22.2664 23.2286 22.1402 23.1626 22.409C23.0911 22.6887 23.2452 24.7179 23.3662 25.0963C23.4432 25.3431 23.6083 25.4857 23.7183 25.3924C23.8229 25.3047 23.8229 25.2279 23.7238 25.2279Z" fill="#FCFCFC"/>
<path id="Vector_26" d="M22.717 20.9118C22.6839 20.7308 22.5629 20.654 22.4308 20.7308C22.1502 20.8788 22.1777 21.2244 22.4694 21.2244C22.6124 21.2244 22.7665 21.1366 22.75 21.0653C22.7445 21.0434 22.728 20.9776 22.717 20.9118Z" fill="#FCFCFC"/>
<path id="Vector_27" d="M21.2919 12.7236C21.1818 12.5262 20.7912 11.912 20.417 11.3526C20.0484 10.7932 19.6027 10.1131 19.4322 9.8334C19.2561 9.5537 19.047 9.25206 18.9645 9.16432C18.8324 9.02721 18.8214 8.98333 18.8764 8.90107C18.948 8.79138 19.2176 8.29779 19.7018 7.37642C20.1749 6.47699 20.5876 5.78597 20.9507 5.27593C21.2534 4.85912 21.3194 4.66168 21.1598 4.66168C21.0278 4.66168 20.285 5.83533 19.5917 7.12963C18.7224 8.76944 18.0346 9.95954 17.9906 9.91567C17.9851 9.9047 17.9576 8.62685 17.9411 7.07479C17.9191 5.52272 17.8916 4.23939 17.8805 4.22842C17.7155 4.0584 17.6274 5.95598 17.6385 9.59758C17.644 11.1496 17.6385 12.5591 17.6274 12.7236C17.6109 12.9924 17.6219 13.0253 17.721 13.0253C17.9136 13.0253 17.9796 12.6085 17.9851 11.3416C17.9906 10.6231 18.0181 10.2009 18.0511 10.2009C18.0841 10.2009 18.2382 9.976 18.4033 9.70726C18.5628 9.43305 18.7114 9.21367 18.7334 9.21367C18.7499 9.21367 18.9315 9.51531 19.124 9.88276C19.3221 10.2502 19.7843 11.0071 20.1584 11.561C20.5271 12.1149 20.9012 12.7072 20.9893 12.8827C21.1873 13.2721 21.2919 13.3653 21.4074 13.2721C21.523 13.1734 21.512 13.124 21.2919 12.7236Z" fill="#FCFCFC"/>
<path id="Vector_28" d="M21.1323 21.6302C21.0828 21.6083 21.0168 21.6192 20.9893 21.6467C20.9397 21.696 20.5711 22.6667 20.307 23.4455C20.1254 23.9665 19.8613 24.9756 19.8118 25.3047L19.7733 25.5789L19.5312 25.2005C19.2121 24.7069 18.981 24.2298 18.4693 23.0068C18.1887 22.3322 18.0346 22.0689 17.9631 22.1402C17.9301 22.1731 17.9576 22.2883 18.0456 22.4638C18.1172 22.6119 18.3042 23.0671 18.4638 23.4729C18.8214 24.4162 19.102 24.9921 19.4542 25.5241C19.7293 25.9299 19.8558 26.0506 20.0264 26.0506C20.0924 26.0506 20.1034 25.9683 20.0979 25.6283C20.0924 25.3431 20.1309 25.025 20.2135 24.6795C20.3785 23.9994 20.9287 22.3651 21.0168 22.2938C21.0553 22.2664 21.0993 22.1512 21.1158 22.047C21.1378 21.9428 21.1653 21.8112 21.1873 21.7618C21.2149 21.696 21.1928 21.6521 21.1323 21.6302Z" fill="#FCFCFC"/>
<path id="Vector_29" d="M17.1213 25.6886C17.0442 25.6612 16.7251 25.7654 16.1254 26.0177C15.4541 26.2974 14.7223 26.3303 14.3482 26.1054C14.2051 26.0177 14.1721 25.9628 14.1721 25.7983C14.1721 25.557 14.2381 25.4254 14.4912 25.1566C15.0249 24.6082 15.9273 24.6082 16.4995 25.1621C16.6866 25.3431 16.7141 25.3541 16.7911 25.2718C16.8682 25.195 16.8627 25.1676 16.7141 24.9482C16.6261 24.8166 16.34 24.3833 16.0759 23.983C15.267 22.749 14.7994 22.3487 14.1721 22.3541C13.8255 22.3541 13.5174 22.4912 13.2698 22.7545C13.1432 22.8806 13.1212 22.941 13.1707 22.9903C13.2147 23.0342 13.2863 23.0013 13.4568 22.8477C13.7319 22.6009 13.8805 22.5406 14.2051 22.5406C14.5298 22.5406 14.8159 22.6942 15.113 23.0232C15.3331 23.27 15.7952 23.9227 16.0869 24.4108L16.2079 24.6137L15.9768 24.5314C15.3386 24.3066 14.3977 24.685 14.0291 25.3157C13.6274 26.0012 14.0511 26.5387 14.9919 26.5442C15.6687 26.5442 16.2629 26.3577 16.9397 25.9244C17.2258 25.7435 17.2313 25.7325 17.1213 25.6886Z" fill="#FCFCFC"/>
<path id="Vector_30" d="M16.8901 12.2849C16.8736 12.2849 16.7691 12.3562 16.6591 12.4439C16.3619 12.6798 15.9273 12.8333 15.5586 12.8333C15.1405 12.8333 14.9314 12.7017 14.8048 12.3726C14.6123 11.8681 14.8103 10.689 15.245 9.78953C15.5916 9.06011 16.2629 8.33069 16.494 8.41844C16.538 8.4349 16.6095 8.40747 16.6536 8.35811C16.7141 8.28133 16.7141 8.2594 16.6205 8.19359C16.56 8.14971 16.4775 8.12777 16.439 8.14423C16.395 8.16068 16.3289 8.17165 16.2904 8.17165C16.1749 8.17165 15.6137 8.7146 15.3881 9.04366C14.6563 10.1186 14.2326 11.6323 14.4527 12.411C14.5242 12.6688 14.7993 12.9924 15.0359 13.0856C15.3165 13.2063 15.9108 13.1843 16.1914 13.0472C16.4775 12.9101 17.0552 12.2849 16.8901 12.2849Z" fill="#FCFCFC"/>
<path id="Vector_31" d="M13.5339 12.3946C13.5118 12.3946 13.4183 12.4659 13.3138 12.5536C13.2147 12.6414 12.9616 12.8169 12.7471 12.943C12.3124 13.2008 11.9933 13.2447 11.7952 13.0746C11.6906 12.9759 11.6851 12.932 11.7126 12.2849C11.7292 11.9065 11.7732 11.4458 11.8062 11.2593C11.8667 10.9412 11.8887 10.9138 12.1968 10.6725C12.9506 10.0857 13.5229 8.95591 13.3468 8.41296C13.2698 8.19359 13.0882 8.09487 12.8901 8.16617C12.703 8.23746 12.3729 8.63233 12.2243 8.95591C12.0868 9.25206 11.7402 10.2776 11.6411 10.678C11.6026 10.8261 11.5476 10.9193 11.4761 10.9412C11.3495 10.9796 11.3275 11.0783 11.4485 11.0783C11.5476 11.0783 11.5476 11.0564 11.4485 11.5994C11.3495 12.1423 11.344 12.9759 11.4375 13.1569C11.7071 13.6834 12.5765 13.6066 13.1322 13.0143C13.4348 12.6907 13.6274 12.3946 13.5339 12.3946ZM12.9781 9.43853C12.7911 9.8334 12.4114 10.3215 12.1198 10.5464L11.9217 10.6944L12.0318 10.2996C12.3234 9.23013 12.582 8.68718 12.9121 8.45684C13.2257 8.23746 13.2698 8.82429 12.9781 9.43853Z" fill="#FCFCFC"/>
<path id="Vector_32" d="M11.7677 26.5167C11.6962 26.3083 11.5366 25.5515 11.4211 24.844C11.1515 23.2645 11.0139 22.76 10.8488 22.76C10.5407 22.7655 9.73192 23.8294 9.38528 24.685C9.28074 24.9373 9.13218 25.3705 9.04965 25.6393L8.90109 26.1328L8.84057 25.9135C8.73053 25.5186 8.4059 23.1274 8.31787 22.047C8.30686 21.9154 8.26835 21.7947 8.22983 21.7838C8.17481 21.7618 8.16931 21.888 8.19682 22.3541C8.27935 23.5771 8.51044 25.6063 8.64249 26.237C8.71952 26.5935 8.78005 26.9555 8.78005 27.0378C8.78005 27.2352 8.9121 27.3504 9.02764 27.2571C9.08817 27.2078 9.11017 27.0816 9.11017 26.8239C9.11017 26.1109 9.61637 24.6137 10.0951 23.8898C10.4032 23.4291 10.8158 23.0177 10.8158 23.1658C10.8158 23.1823 10.8544 23.3742 10.8984 23.5936C10.9479 23.813 11.0469 24.4492 11.124 25.0086C11.245 25.9464 11.4651 26.8568 11.5971 27.0268C11.6797 27.12 11.7952 27.1091 11.8502 26.9994C11.8888 26.9281 11.8612 26.78 11.7677 26.5167Z" fill="#FCFCFC"/>
<path id="Vector_33" d="M10.0565 8.99431C9.99597 8.69815 9.83641 8.70912 9.53379 9.04367C9.19816 9.4166 8.93956 9.81696 8.63694 10.4257C8.38934 10.9193 7.93267 12.0436 7.89415 12.252C7.88315 12.3123 7.87214 10.8919 7.86664 9.09851C7.86664 7.30513 7.84463 5.5666 7.82813 5.22657C7.80062 4.77137 7.81162 4.60684 7.86114 4.59039C7.91066 4.57394 7.91066 4.53555 7.85564 4.42037C7.81712 4.33811 7.7566 4.27778 7.71808 4.29424C7.66856 4.31069 7.64656 5.07849 7.61905 7.65613C7.59704 9.49338 7.55302 11.5665 7.52551 12.2575C7.42647 14.3415 7.42647 15.038 7.53101 15.1039C7.59153 15.1422 7.64105 15.1368 7.70158 15.0874C7.77311 15.0271 7.78961 14.8625 7.78961 14.0728C7.78961 13.5518 7.81162 13.1076 7.83913 13.0801C7.87214 13.0472 7.98219 12.7401 8.08673 12.3891C8.50489 11.0235 9.18165 9.67985 9.68785 9.21368L9.84191 9.07657L9.80339 9.89922C9.75938 10.8041 9.60532 12.3397 9.46776 13.1843C9.33571 14.0015 9.33571 14.4128 9.46226 14.5061C9.58881 14.5993 9.74837 14.5335 9.79239 14.369C9.8089 14.3086 9.84191 14.2044 9.85842 14.1386C9.88593 14.0454 9.87492 14.0289 9.79789 14.0618C9.70436 14.0947 9.70436 14.0673 9.73187 13.6999C9.75387 13.4805 9.78139 13.2392 9.79789 13.1679C9.8199 13.0527 9.88593 12.5317 10.018 11.4348C10.0675 11.0454 10.095 9.19174 10.0565 8.99431Z" fill="#FCFCFC"/>
<path id="Vector_34" d="M6.46912 6.13697C6.161 5.8463 5.76485 5.73661 5.15411 5.775C4.02618 5.8463 3.21736 6.35634 2.2875 7.5958C1.39065 8.79139 1.0055 10.0583 1 11.8187C1 13.9302 1.50069 15.0874 2.5516 15.389C3.49247 15.6633 5.42922 14.8132 5.78136 13.9741C5.84738 13.815 5.84738 13.7657 5.79786 13.7657C5.75935 13.7657 5.69883 13.8095 5.66031 13.8699C5.58328 13.996 4.82949 14.528 4.48836 14.698C3.77308 15.06 3.0688 15.1971 2.60662 15.06C1.68227 14.7912 1.16506 13.2008 1.33563 11.1496C1.48419 9.42757 2.0179 8.2265 3.14033 7.09673C3.88862 6.34537 4.44984 6.08761 5.34669 6.08761C5.96293 6.09309 6.38659 6.3015 6.38659 6.59765C6.38659 6.74025 6.49113 6.77315 6.60118 6.66346C6.74423 6.52087 6.70572 6.35634 6.46912 6.13697Z" fill="#FCFCFC"/>
</g>
</g>
<defs>
<clipPath id="clip0_1_42">
<rect width="97" height="31" fill="white"/>
</clipPath>
</defs>
</svg>
