<svg width="105" height="28" viewBox="0 0 105 28" fill="none" xmlns="http://www.w3.org/2000/svg">
<rect width="105" height="28" fill="white"/>
<path d="M88.0735 4.94195C87.5178 4.28383 84.6842 3.42279 81.2784 2.87984C76.1119 2.0517 67.6331 1.77749 60.1777 2.18881C53.4926 2.56175 45.3879 3.52151 36.7661 4.9584C31.8527 5.78105 29.2006 6.26367 26.5596 6.82307C26.0754 6.92728 25.085 7.13568 24.3588 7.28924C23.6325 7.43732 22.8787 7.60185 22.6806 7.64572C20.6283 8.10641 16.2651 9.0552 15.1977 9.2636C12.177 9.86688 11.1867 9.98753 9.32693 9.9985C8.05043 10.004 7.74782 10.0369 8.19349 10.1192C8.56213 10.1905 10.9996 10.0972 11.8744 9.98205C13.2114 9.80106 16.0285 9.25263 19.0492 8.57806C20.0506 8.3532 23.6875 7.56894 24.3863 7.42635C24.7329 7.35505 25.5032 7.19601 26.0919 7.06987C31.4785 5.9401 39.1155 4.65676 45.7071 3.77927C54.3509 2.63304 60.2602 2.18881 66.9728 2.18881C76.2384 2.18881 83.006 2.95662 86.7915 4.44287C87.9029 4.88162 88.2606 5.2381 87.7874 5.44102C87.1932 5.68782 86.2963 5.82492 83.6443 6.05527C79.7598 6.39529 79.2921 6.42272 71.6771 6.82307C62.9398 7.28376 58.538 7.71153 52.117 8.72065C47.6878 9.41716 44.6121 10.0479 41.6355 10.8815C38.8404 11.6603 36.2544 12.7132 35.6216 13.3275C35.4731 13.4756 35.4456 13.5414 35.4566 13.7004C35.4731 13.865 35.5116 13.9198 35.7207 14.0459C36.2049 14.3366 36.6891 14.3914 38.8019 14.386C39.8473 14.386 41.2228 14.3531 41.8556 14.3147C49.2119 13.8979 49.1459 13.9033 53.1074 13.9033C56.8324 13.9088 58.351 13.9582 61.6908 14.1995C66.1035 14.5176 68.4419 14.8741 69.4378 15.3677C69.6359 15.4664 69.8284 15.598 69.8724 15.6583C70.1365 16.0587 68.8215 16.5742 65.3772 17.4353C60.6399 18.6199 58.8076 19.1464 56.0786 20.1116C55.7595 20.2213 54.6645 20.6655 54.2904 20.8301C54.1693 20.8849 53.8832 21.011 53.6576 21.1098C52.8048 21.4882 51.5338 22.1627 50.9341 22.5576C49.7951 23.3035 49.355 23.8629 49.355 24.5704C49.355 25.0749 49.4375 25.1846 49.4815 24.7294C49.498 24.5155 49.5641 24.2632 49.6466 24.0987C50.0152 23.3528 51.2752 22.4699 53.3715 21.4991C56.0071 20.2707 58.7086 19.3657 62.9287 18.2853C63.5945 18.1153 64.5739 17.863 65.1021 17.7314C67.8036 17.0404 68.8986 16.7004 69.5808 16.3494C70.3511 15.949 70.3126 15.5322 69.4598 15.1428C68.3869 14.6492 66.0044 14.2982 61.6357 13.9856C58.4335 13.7553 56.6453 13.6895 53.245 13.684C49.8832 13.684 48.9478 13.7114 44.6892 13.9527C40.8267 14.1721 39.6382 14.216 38.0976 14.183C36.557 14.1556 36.1388 14.1008 35.8307 13.8759C35.5006 13.6346 35.6877 13.4152 36.6505 12.9216C39.0385 11.6877 43.7263 10.3769 49.1184 9.43361C56.9204 8.06253 62.285 7.50861 72.9701 6.96018C78.7694 6.66403 80.1119 6.57628 84.3871 6.18689C87.6994 5.89074 88.6127 5.58361 88.0735 4.94195Z" fill="black"/>
</svg>
