<svg width="19" height="17" viewBox="0 0 19 17" fill="none" xmlns="http://www.w3.org/2000/svg">
<g id="Vector" filter="url(#filter0_d_1_45)">
<mask id="path-1-inside-1_1_45" fill="white">
<path d="M16.7069 6.59188C16.6189 6.59188 16.5308 6.43283 16.4593 6.15313C16.2447 5.33048 15.2268 3.40548 14.451 2.34701C14.1099 1.88632 13.4441 1.01432 13.3616 0.921082C13.2405 0.783974 13.2681 0.964957 13.4111 1.25014C13.4991 1.43113 13.6862 1.8589 13.8293 2.20442C13.9723 2.54993 14.2584 3.15869 14.473 3.54808C14.9242 4.3817 15.7055 5.9557 15.7605 6.15313C15.7935 6.26282 15.744 6.2354 15.4799 5.99409C14.7096 5.28661 13.5046 4.6614 11.3038 3.82778C8.56923 2.78575 7.05064 2.40185 6.14279 2.52799C5.63109 2.59929 4.71773 2.8735 4.68472 2.96125C4.66821 3.0161 4.70123 3.02158 4.82227 2.98867C5.05886 2.92286 6.11528 2.95577 6.86357 3.049C8.38766 3.24644 11.6339 4.25556 13.3396 5.05627C14.363 5.5334 15.2708 6.14765 15.5955 6.57543L15.7385 6.75641L15.5404 6.84964C15.4359 6.899 15.3479 6.9703 15.3479 7.00869C15.3479 7.04708 15.2433 7.11289 15.1168 7.15128C14.9847 7.18419 14.8307 7.24452 14.7701 7.28291C14.7096 7.3213 14.451 7.4255 14.1924 7.51325C13.5487 7.73811 13.3286 7.83682 12.1456 8.41816C11.5789 8.69238 11.1112 8.94466 11.1112 8.97208C11.1112 9.02692 11.5349 8.97208 11.9365 8.86239C12.1016 8.81303 12.6243 8.58818 13.092 8.36332C14.1869 7.83682 14.8087 7.57906 15.0012 7.57906C15.0838 7.57906 15.3038 7.51873 15.4854 7.44195C15.667 7.37066 15.8981 7.30484 15.9916 7.30484C16.2227 7.30484 16.7069 7.03611 16.7454 6.89352C16.8004 6.70705 16.7839 6.59188 16.7069 6.59188Z"/>
</mask>
<path d="M16.7069 6.59188C16.6189 6.59188 16.5308 6.43283 16.4593 6.15313C16.2447 5.33048 15.2268 3.40548 14.451 2.34701C14.1099 1.88632 13.4441 1.01432 13.3616 0.921082C13.2405 0.783974 13.2681 0.964957 13.4111 1.25014C13.4991 1.43113 13.6862 1.8589 13.8293 2.20442C13.9723 2.54993 14.2584 3.15869 14.473 3.54808C14.9242 4.3817 15.7055 5.9557 15.7605 6.15313C15.7935 6.26282 15.744 6.2354 15.4799 5.99409C14.7096 5.28661 13.5046 4.6614 11.3038 3.82778C8.56923 2.78575 7.05064 2.40185 6.14279 2.52799C5.63109 2.59929 4.71773 2.8735 4.68472 2.96125C4.66821 3.0161 4.70123 3.02158 4.82227 2.98867C5.05886 2.92286 6.11528 2.95577 6.86357 3.049C8.38766 3.24644 11.6339 4.25556 13.3396 5.05627C14.363 5.5334 15.2708 6.14765 15.5955 6.57543L15.7385 6.75641L15.5404 6.84964C15.4359 6.899 15.3479 6.9703 15.3479 7.00869C15.3479 7.04708 15.2433 7.11289 15.1168 7.15128C14.9847 7.18419 14.8307 7.24452 14.7701 7.28291C14.7096 7.3213 14.451 7.4255 14.1924 7.51325C13.5487 7.73811 13.3286 7.83682 12.1456 8.41816C11.5789 8.69238 11.1112 8.94466 11.1112 8.97208C11.1112 9.02692 11.5349 8.97208 11.9365 8.86239C12.1016 8.81303 12.6243 8.58818 13.092 8.36332C14.1869 7.83682 14.8087 7.57906 15.0012 7.57906C15.0838 7.57906 15.3038 7.51873 15.4854 7.44195C15.667 7.37066 15.8981 7.30484 15.9916 7.30484C16.2227 7.30484 16.7069 7.03611 16.7454 6.89352C16.8004 6.70705 16.7839 6.59188 16.7069 6.59188Z" fill="#D9D9D9"/>
<path d="M16.7069 6.59188C16.6189 6.59188 16.5308 6.43283 16.4593 6.15313C16.2447 5.33048 15.2268 3.40548 14.451 2.34701C14.1099 1.88632 13.4441 1.01432 13.3616 0.921082C13.2405 0.783974 13.2681 0.964957 13.4111 1.25014C13.4991 1.43113 13.6862 1.8589 13.8293 2.20442C13.9723 2.54993 14.2584 3.15869 14.473 3.54808C14.9242 4.3817 15.7055 5.9557 15.7605 6.15313C15.7935 6.26282 15.744 6.2354 15.4799 5.99409C14.7096 5.28661 13.5046 4.6614 11.3038 3.82778C8.56923 2.78575 7.05064 2.40185 6.14279 2.52799C5.63109 2.59929 4.71773 2.8735 4.68472 2.96125C4.66821 3.0161 4.70123 3.02158 4.82227 2.98867C5.05886 2.92286 6.11528 2.95577 6.86357 3.049C8.38766 3.24644 11.6339 4.25556 13.3396 5.05627C14.363 5.5334 15.2708 6.14765 15.5955 6.57543L15.7385 6.75641L15.5404 6.84964C15.4359 6.899 15.3479 6.9703 15.3479 7.00869C15.3479 7.04708 15.2433 7.11289 15.1168 7.15128C14.9847 7.18419 14.8307 7.24452 14.7701 7.28291C14.7096 7.3213 14.451 7.4255 14.1924 7.51325C13.5487 7.73811 13.3286 7.83682 12.1456 8.41816C11.5789 8.69238 11.1112 8.94466 11.1112 8.97208C11.1112 9.02692 11.5349 8.97208 11.9365 8.86239C12.1016 8.81303 12.6243 8.58818 13.092 8.36332C14.1869 7.83682 14.8087 7.57906 15.0012 7.57906C15.0838 7.57906 15.3038 7.51873 15.4854 7.44195C15.667 7.37066 15.8981 7.30484 15.9916 7.30484C16.2227 7.30484 16.7069 7.03611 16.7454 6.89352C16.8004 6.70705 16.7839 6.59188 16.7069 6.59188Z" stroke="black" stroke-width="8" mask="url(#path-1-inside-1_1_45)"/>
</g>
<defs>
<filter id="filter0_d_1_45" x="0.680756" y="0.874344" width="20.097" height="16.1192" filterUnits="userSpaceOnUse" color-interpolation-filters="sRGB">
<feFlood flood-opacity="0" result="BackgroundImageFix"/>
<feColorMatrix in="SourceAlpha" type="matrix" values="0 0 0 0 0 0 0 0 0 0 0 0 0 0 0 0 0 0 127 0" result="hardAlpha"/>
<feOffset dy="4"/>
<feGaussianBlur stdDeviation="2"/>
<feComposite in2="hardAlpha" operator="out"/>
<feColorMatrix type="matrix" values="0 0 0 0 0 0 0 0 0 0 0 0 0 0 0 0 0 0 0.25 0"/>
<feBlend mode="normal" in2="BackgroundImageFix" result="effect1_dropShadow_1_45"/>
<feBlend mode="normal" in="SourceGraphic" in2="effect1_dropShadow_1_45" result="shape"/>
</filter>
</defs>
</svg>
