<svg width="70" height="50" viewBox="0 0 13 9" fill="none" xmlns="http://www.w3.org/2000/svg">
<rect width="13" height="9" fill="#F5F5F5"/>
<g id="Frame 1" clip-path="url(#clip0_0_1)">
<rect width="97" height="31" transform="translate(-82 -12)" fill="white"/>
<g id="Group">
<g id="Vector">
<mask id="path-1-inside-1_0_1" fill="white">
<path d="M12.7069 6.59188C12.6189 6.59188 12.5308 6.43283 12.4593 6.15313C12.2447 5.33048 11.2268 3.40548 10.451 2.34701C10.1099 1.88632 9.44412 1.01432 9.36159 0.921082C9.24054 0.783974 9.26805 0.964957 9.41111 1.25014C9.49914 1.43113 9.68622 1.8589 9.82927 2.20442C9.97233 2.54993 10.2584 3.15869 10.473 3.54808C10.9242 4.3817 11.7055 5.9557 11.7605 6.15313C11.7935 6.26282 11.744 6.2354 11.4799 5.99409C10.7096 5.28661 9.50465 4.6614 7.30379 3.82778C4.56923 2.78575 3.05064 2.40185 2.14279 2.52799C1.63109 2.59929 0.717732 2.8735 0.684719 2.96125C0.668213 3.0161 0.701226 3.02158 0.822273 2.98867C1.05886 2.92286 2.11528 2.95577 2.86357 3.049C4.38766 3.24644 7.63392 4.25556 9.33958 5.05627C10.363 5.5334 11.2708 6.14765 11.5955 6.57543L11.7385 6.75641L11.5404 6.84964C11.4359 6.899 11.3479 6.9703 11.3479 7.00869C11.3479 7.04708 11.2433 7.11289 11.1168 7.15128C10.9847 7.18419 10.8307 7.24452 10.7701 7.28291C10.7096 7.3213 10.451 7.4255 10.1924 7.51325C9.54866 7.73811 9.32858 7.83682 8.14562 8.41816C7.5789 8.69238 7.11122 8.94466 7.11122 8.97208C7.11122 9.02692 7.53488 8.97208 7.93654 8.86239C8.1016 8.81303 8.6243 8.58818 9.09198 8.36332C10.1869 7.83682 10.8087 7.57906 11.0012 7.57906C11.0838 7.57906 11.3038 7.51873 11.4854 7.44195C11.667 7.37066 11.8981 7.30484 11.9916 7.30484C12.2227 7.30484 12.7069 7.03611 12.7454 6.89352C12.8004 6.70705 12.7839 6.59188 12.7069 6.59188Z"/>
</mask>
<path d="M12.7069 6.59188C12.6189 6.59188 12.5308 6.43283 12.4593 6.15313C12.2447 5.33048 11.2268 3.40548 10.451 2.34701C10.1099 1.88632 9.44412 1.01432 9.36159 0.921082C9.24054 0.783974 9.26805 0.964957 9.41111 1.25014C9.49914 1.43113 9.68622 1.8589 9.82927 2.20442C9.97233 2.54993 10.2584 3.15869 10.473 3.54808C10.9242 4.3817 11.7055 5.9557 11.7605 6.15313C11.7935 6.26282 11.744 6.2354 11.4799 5.99409C10.7096 5.28661 9.50465 4.6614 7.30379 3.82778C4.56923 2.78575 3.05064 2.40185 2.14279 2.52799C1.63109 2.59929 0.717732 2.8735 0.684719 2.96125C0.668213 3.0161 0.701226 3.02158 0.822273 2.98867C1.05886 2.92286 2.11528 2.95577 2.86357 3.049C4.38766 3.24644 7.63392 4.25556 9.33958 5.05627C10.363 5.5334 11.2708 6.14765 11.5955 6.57543L11.7385 6.75641L11.5404 6.84964C11.4359 6.899 11.3479 6.9703 11.3479 7.00869C11.3479 7.04708 11.2433 7.11289 11.1168 7.15128C10.9847 7.18419 10.8307 7.24452 10.7701 7.28291C10.7096 7.3213 10.451 7.4255 10.1924 7.51325C9.54866 7.73811 9.32858 7.83682 8.14562 8.41816C7.5789 8.69238 7.11122 8.94466 7.11122 8.97208C7.11122 9.02692 7.53488 8.97208 7.93654 8.86239C8.1016 8.81303 8.6243 8.58818 9.09198 8.36332C10.1869 7.83682 10.8087 7.57906 11.0012 7.57906C11.0838 7.57906 11.3038 7.51873 11.4854 7.44195C11.667 7.37066 11.8981 7.30484 11.9916 7.30484C12.2227 7.30484 12.7069 7.03611 12.7454 6.89352C12.8004 6.70705 12.7839 6.59188 12.7069 6.59188Z" fill="#FCFCFC" stroke="black" stroke-width="2" mask="url(#path-1-inside-1_0_1)"/>
</g>
</g>
</g>
<defs>
<clipPath id="clip0_0_1">
<rect width="97" height="31" fill="white" transform="translate(-82 -12)"/>
</clipPath>
</defs>
</svg>
