<svg width="105" height="28" viewBox="0 0 105 28" fill="none" xmlns="http://www.w3.org/2000/svg">
<path id="Vector" d="M94.7069 18.5919C94.6189 18.5919 94.5308 18.4328 94.4593 18.1531C94.2447 17.3305 93.2268 15.4055 92.451 14.347C92.1099 13.8863 91.4441 13.0143 91.3616 12.9211C91.2405 12.784 91.2681 12.965 91.4111 13.2501C91.4991 13.4311 91.6862 13.8589 91.8293 14.2044C91.9723 14.5499 92.2584 15.1587 92.473 15.5481C92.9242 16.3817 93.7055 17.9557 93.7605 18.1531C93.7935 18.2628 93.744 18.2354 93.4799 17.9941C92.7096 17.2866 91.5046 16.6614 89.3038 15.8278C86.5692 14.7858 85.0506 14.4019 84.1428 14.528C83.6311 14.5993 82.7177 14.8735 82.6847 14.9613C82.6682 15.0161 82.7012 15.0216 82.8223 14.9887C83.0589 14.9229 84.1153 14.9558 84.8636 15.049C86.3877 15.2464 89.6339 16.2556 91.3396 17.0563C92.363 17.5334 93.2708 18.1476 93.5955 18.5754L93.7385 18.7564L93.5404 18.8496C93.4359 18.899 93.3479 18.9703 93.3479 19.0087C93.3479 19.0471 93.2433 19.1129 93.1168 19.1513C92.9847 19.1842 92.8307 19.2445 92.7701 19.2829C92.7096 19.3213 92.451 19.4255 92.1924 19.5132C91.5487 19.7381 91.3286 19.8368 90.1456 20.4182C89.5789 20.6924 89.1112 20.9447 89.1112 20.9721C89.1112 21.0269 89.5349 20.9721 89.9365 20.8624C90.1016 20.813 90.6243 20.5882 91.092 20.3633C92.1869 19.8368 92.8087 19.5791 93.0012 19.5791C93.0838 19.5791 93.3038 19.5187 93.4854 19.442C93.667 19.3707 93.8981 19.3048 93.9916 19.3048C94.2227 19.3048 94.7069 19.0361 94.7454 18.8935C94.8004 18.7071 94.7839 18.5919 94.7069 18.5919Z" fill="#FCFCFC"/>
</svg>
